<svg version="1.1" xmlns="http://www.w3.org/2000/svg" viewBox="0 0 145.27027026292922 90.23822355582547" width="145" height="90"> 
  <defs>
    <style class="style-fonts">
      @font-face {
        font-family: "Virgil";
        src: url("https://excalidraw.com/Virgil.woff2");
      }
      @font-face {
        font-family: "Cascadia";
        src: url("https://excalidraw.com/Cascadia.woff2");
      }
    </style>
  </defs>
  <rect x="0" y="0" width="145.27027026292922" height="90.23822355582547" fill="#ffffff00"></rect><g stroke-linecap="round"><g transform="translate(103.29667378106444 48.26432329925916) rotate(349.450093671942 15.487654773021745 -18.02062536931176)"><path d="M0 0 C4.78 -0.68, 23.82 1.96, 28.69 -4.05 C33.56 -10.06, 29.13 -30.72, 29.22 -36.06" stroke="#000000" stroke-width="1.5" fill="none" stroke-dasharray="8 9"></path></g><g transform="translate(103.29667378106444 48.26432329925916) rotate(349.450093671942 15.487654773021745 -18.02062536931176)"><path d="M36.08 -21.6 C34.55 -24.81, 33.03 -28.02, 29.22 -36.06" stroke="#000000" stroke-width="1.5" fill="none"></path></g><g transform="translate(103.29667378106444 48.26432329925916) rotate(349.450093671942 15.487654773021745 -18.02062536931176)"><path d="M25.18 -20.57 C26.08 -24.01, 26.97 -27.45, 29.22 -36.06" stroke="#000000" stroke-width="1.5" fill="none"></path></g></g><mask></mask><g transform="translate(10 27.795915863517735) rotate(0 50.5 26.221153846153868)"><text x="15" y="21.221153846153854" font-family="Virgil, Segoe UI Emoji" font-size="20px" fill="#000000" text-anchor="start" style="white-space: pre;" direction="ltr">Try Dark </text><text x="15" y="45.44230769230771" font-family="Virgil, Segoe UI Emoji" font-size="20px" fill="#000000" text-anchor="start" style="white-space: pre;" direction="ltr">  Mode!</text></g></svg>