<?xml version="1.0" encoding="utf-8"?>
<svg viewBox="0 0 550 470" xmlns="http://www.w3.org/2000/svg">
  <path d="M 178.984 266.266 C 181.19 265.517 183.394 264.393 185.229 263.642 C 215.353 250.146 231.149 223.904 231.149 187.538 C 231.149 159.42 222.333 136.925 204.332 120.43 C 187.067 103.935 163.924 95.687 135.637 95.687 L 17.715 95.687 C 10.735 95.687 4.857 101.684 4.857 108.809 L 4.857 135.801 C 4.857 142.925 10.735 148.922 17.715 148.922 L 132.329 148.922 C 146.657 148.922 158.045 152.296 166.126 159.795 C 173.841 166.543 177.514 175.167 177.514 187.538 C 177.514 194.661 176.413 200.658 173.841 204.783 C 166.494 217.528 152.167 223.528 130.861 223.528 L 17.715 223.528 C 10.735 223.528 4.857 229.527 4.857 236.65 L 4.857 359.992 C 4.857 367.115 10.735 373.114 17.715 373.114 L 45.634 373.114 C 52.613 373.114 58.492 367.115 58.492 359.992 L 58.492 276.763 L 123.88 276.763 L 179.719 367.115 C 181.923 370.865 185.963 373.114 190.372 373.114 L 223.802 373.114 C 228.209 373.114 232.619 370.489 234.823 366.367 C 237.395 361.866 237.027 356.994 234.455 352.868 L 178.984 266.266 Z" style="fill: rgb(0, 0, 0);"/>
  <path d="M 531.279 95.687 L 498.953 95.687 C 494.544 95.687 490.871 97.561 488.299 100.934 L 412.256 205.908 L 334.377 100.934 C 331.804 97.561 328.131 95.687 324.091 95.687 L 291.763 95.687 C 286.987 95.687 282.578 98.686 280.374 103.185 C 278.17 107.309 278.537 112.933 281.476 116.682 L 401.97 279.388 C 404.174 282.763 408.214 284.637 412.256 284.637 C 416.297 284.637 419.97 282.763 422.542 279.764 L 490.504 190.537 L 490.504 359.99 C 490.504 367.115 496.013 373.114 503.36 373.114 L 531.279 373.114 C 538.259 373.114 544.138 367.115 544.138 359.99 L 544.138 108.809 C 544.138 101.684 538.259 95.687 531.279 95.687 Z M 319.682 277.513 L 291.763 277.513 C 284.784 277.513 278.904 283.137 278.904 290.635 L 278.904 359.992 C 278.904 367.115 284.784 373.114 291.763 373.114 L 319.682 373.114 C 326.662 373.114 332.54 367.115 332.54 359.992 L 332.54 290.635 C 332.54 283.137 326.662 277.513 319.682 277.513 Z" style="fill: rgb(0, 0, 0);"/>
  <path d="M 274.497 5.11 C 336.54 5.11 389.495 27.497 433.365 72.269 C 440.318 79.364 446.721 86.693 452.572 94.255 L 452.45 94.422 L 449.244 98.845 L 446.038 103.273 L 442.832 107.699 L 439.627 112.122 L 435.674 111.85 C 429.901 104.139 423.499 96.693 416.465 89.516 C 377.262 49.507 329.939 29.503 274.497 29.503 C 232.172 29.503 194.574 41.162 161.713 64.481 L 160.737 64.322 L 155.392 63.572 L 153.965 63.402 L 148.592 62.895 L 147.25 62.795 L 141.866 62.513 L 140.705 62.473 L 135.636 62.396 L 125.849 62.396 C 167.646 24.206 217.197 5.11 274.497 5.11 Z M 433.365 396.532 C 389.495 441.302 336.54 463.689 274.497 463.689 C 212.455 463.689 159.499 441.302 115.629 396.532 C 110.067 390.855 104.857 385.029 100.001 379.054 L 128.991 375.593 C 130.153 376.833 131.331 378.063 132.527 379.285 C 171.733 419.293 219.055 439.3 274.497 439.3 C 329.939 439.3 377.262 419.293 416.465 379.285 C 430.367 365.101 441.802 349.875 450.772 333.608 L 457.882 336.09 L 457.882 359.992 L 458.442 366.126 L 458.515 366.514 C 451.138 376.945 442.754 386.951 433.365 396.532 Z" style="fill: rgb(0, 0, 0);"/>
</svg>